<svg xmlns="http://www.w3.org/2000/svg" viewBox="0 0 210.38 131.42"><defs><style>.cls-1{font-size:11.62px;}.cls-1,.cls-3,.cls-4{fill:#b5752c;}.cls-1,.cls-4{font-family:CherryBomb-Regular, Cherry Bomb;}.cls-2{font-size:11px;}.cls-13,.cls-15,.cls-2{fill:#8b4d21;}.cls-13,.cls-2,.cls-3{font-family:Roboto-Regular, Roboto;}.cls-3{font-size:13.55px;}.cls-4{font-size:17px;letter-spacing:0em;}.cls-5{letter-spacing:0.03em;}.cls-6{letter-spacing:0.02em;}.cls-7{letter-spacing:0em;}.cls-8{letter-spacing:0.02em;}.cls-9{letter-spacing:-0.01em;}.cls-10{letter-spacing:0.01em;}.cls-11{letter-spacing:-0.02em;}.cls-12{letter-spacing:0.01em;}.cls-13{font-size:7px;letter-spacing:0.02em;}.cls-14,.cls-16{fill:#963;}.cls-14,.cls-15{stroke:#963;stroke-miterlimit:10;}.cls-15{stroke-width:2px;}</style></defs><title>Plan de travail 1</title><g id="Calque_2" data-name="Calque 2"><text class="cls-1" transform="translate(20.01 121.34) rotate(-89.17)"> </text><text class="cls-1" transform="translate(20.06 117.92) rotate(-87.5)"> </text><text class="cls-1" transform="matrix(0.07, -1, 1, 0.07, 20.21, 114.5)"> </text><text class="cls-1" transform="translate(20.46 111.08) rotate(-84.12)"> </text><text class="cls-1" transform="matrix(0.13, -0.99, 0.99, 0.13, 20.81, 107.67)"> </text><text class="cls-1" transform="translate(21.26 104.28) rotate(-80.69)"> </text><text class="cls-1" transform="matrix(0.19, -0.98, 0.98, 0.19, 21.81, 100.91)"> </text><text class="cls-1" transform="translate(22.47 97.54) rotate(-77.21)"> </text><text class="cls-1" transform="matrix(0.25, -0.97, 0.97, 0.25, 23.22, 94.22)"> </text><text class="cls-1" transform="matrix(0.28, -0.96, 0.96, 0.28, 24.08, 90.9)"> </text><text class="cls-1" transform="translate(25.04 87.6) rotate(-71.89)"> </text><text class="cls-2" transform="matrix(0.37, -0.93, 0.93, 0.37, 26, 84.37)">M</text><text class="cls-2" transform="translate(29.86 74.81) rotate(-63.62)">A</text><text class="cls-2" transform="matrix(0.51, -0.86, 0.86, 0.51, 33.23, 68.03)">G</text><text class="cls-2" transform="matrix(0.58, -0.82, 0.82, 0.58, 37.42, 61.06)">A</text><text class="cls-2" transform="matrix(0.64, -0.77, 0.77, 0.64, 41.85, 54.85)">S</text><text class="cls-2" transform="translate(46.64 49.2) rotate(-46.85)">I</text><text class="cls-2" transform="translate(49.21 46.38) rotate(-42.98)">N</text><text class="cls-2" transform="translate(55.46 40.7) rotate(-39.1)"> </text><text class="cls-2" transform="translate(58.06 38.51) rotate(-35.22)">D</text><text class="cls-2" transform="matrix(0.87, -0.5, 0.5, 0.87, 64.73, 33.87)">E</text><text class="cls-2" transform="translate(70.62 30.55) rotate(-26.36)"> </text><text class="cls-2" transform="translate(73.63 28.99) rotate(-22.12)">G</text><text class="cls-2" transform="translate(81.13 25.98) rotate(-15.99)">U</text><text class="cls-2" transform="translate(88.95 23.85) rotate(-11.41)">I</text><text class="cls-2" transform="matrix(0.99, -0.13, 0.13, 0.99, 92.51, 23.09)">T</text><text class="cls-2" transform="matrix(1, -0.03, 0.03, 1, 99.26, 22.24)">A</text><text class="cls-2" transform="matrix(1, 0.07, -0.07, 1, 106.83, 22.03)">R</text><text class="cls-2" transform="translate(114.43 22.62) rotate(9.64)">E</text><text class="cls-2" transform="translate(121.06 23.77) rotate(15.1)">S</text><text class="cls-2" transform="matrix(0.94, 0.33, -0.33, 0.94, 128.19, 25.79)"> </text><text class="cls-2" transform="matrix(0.92, 0.39, -0.39, 0.92, 131.42, 26.88)">E</text><text class="cls-2" transform="matrix(0.88, 0.47, -0.47, 0.88, 137.6, 29.54)">T</text><text class="cls-2" transform="translate(143.96 33.04) rotate(31.97)"> </text><text class="cls-2" transform="matrix(0.81, 0.59, -0.59, 0.81, 146.91, 34.82)">D</text><text class="cls-2" transform="matrix(0.76, 0.65, -0.65, 0.76, 153.42, 39.61)">E</text><text class="cls-2" transform="translate(158.5 44.1) rotate(44.2)"> </text><text class="cls-2" transform="matrix(0.67, 0.74, -0.74, 0.67, 160.99, 46.47)">B</text><text class="cls-2" transform="matrix(0.61, 0.79, -0.79, 0.61, 166.13, 52.16)">A</text><text class="cls-2" transform="matrix(0.55, 0.84, -0.84, 0.55, 170.77, 58.21)">S</text><text class="cls-2" transform="translate(174.81 64.42) rotate(60.91)">S</text><text class="cls-2" transform="translate(178.39 70.92) rotate(64.82)">E</text><text class="cls-2" transform="matrix(0.36, 0.93, -0.93, 0.36, 181.25, 77.03)">S</text><text class="cls-3" transform="translate(183.9 84) rotate(71.7)"> </text><text class="cls-4" transform="translate(13.85 117.25)">L<tspan class="cls-5" x="10.37" y="0">a </tspan><tspan x="24.82" y="0">T</tspan><tspan class="cls-5" x="37.6" y="0">hé</tspan><tspan class="cls-6" x="56.66" y="0">o</tspan><tspan x="66.28" y="0">r</tspan><tspan class="cls-7" x="74.73" y="0">i</tspan><tspan class="cls-8" x="79.64" y="0">e </tspan><tspan class="cls-7" x="94.26" y="0">de</tspan><tspan class="cls-8" x="112.88" y="0">s </tspan><tspan class="cls-9" x="126.92" y="0">C</tspan><tspan class="cls-10" x="138.09" y="0">o</tspan><tspan class="cls-11" x="147.71" y="0">r</tspan><tspan class="cls-12" x="155.82" y="0">de</tspan><tspan class="cls-5" x="174.44" y="0">s</tspan></text><text class="cls-13" transform="translate(13.17 98.44)">DEPUIS</text><text class="cls-13" transform="translate(179.93 98.14)">1957</text></g><g id="note"><ellipse class="cls-14" cx="95.52" cy="80.52" rx="9.57" ry="8.92"/><line class="cls-15" x1="104.1" y1="36.06" x2="104.1" y2="80.53"/><path class="cls-16" d="M104.47,38.29c6,2.56,5.48,8.93,8.72,13.64,2.5,3.63,6.35,5.4,10.34,6.93,1.5.58,2.16-1.83.67-2.41-2.93-1.12-5.86-2.36-8-4.73-2-2.15-2.52-4.8-3.45-7.45-1.26-3.58-3.45-6.62-7-8.14-1.46-.62-2.74,1.53-1.26,2.16Z"/></g></svg>